<?xml version="1.0" standalone="no"?>
<!DOCTYPE svg PUBLIC "-//W3C//DTD SVG 20010904//EN"
 "http://www.w3.org/TR/2001/REC-SVG-20010904/DTD/svg10.dtd">
<svg version="1.0" xmlns="http://www.w3.org/2000/svg"
 width="500.000000pt" height="500.000000pt" viewBox="0 0 500.000000 500.000000"
 preserveAspectRatio="xMidYMid meet">
<metadata>
Created by potrace 1.14, written by Peter Selinger 2001-2017
</metadata>
<g transform="translate(0.000000,500.000000) scale(0.100000,-0.100000)"
fill="#000000" stroke="none">
<path d="M2690 4499 c-24 -5 -58 -15 -76 -24 -18 -8 -39 -15 -47 -15 -9 0 -18
-4 -22 -9 -3 -5 -31 -17 -63 -27 -31 -10 -64 -19 -72 -22 -49 -15 -149 -12
-197 6 l-51 19 -55 -52 c-53 -50 -106 -83 -287 -177 -69 -36 -85 -49 -87 -69
-1 -13 -4 -141 -7 -284 -2 -143 -5 -262 -6 -265 -6 -15 3 -66 12 -71 6 -4 29
-9 52 -12 22 -4 69 -20 104 -36 34 -17 65 -31 68 -30 4 0 10 -3 13 -8 3 -5 21
-20 40 -33 19 -13 55 -43 80 -67 25 -24 57 -46 70 -49 22 -6 124 11 146 24 6
4 15 7 20 9 6 1 20 4 31 7 12 2 39 -2 60 -9 56 -20 59 -19 74 22 23 65 102
123 166 123 16 0 36 10 50 25 87 94 208 -10 207 -180 -1 -100 0 -221 1 -285 2
-59 -8 -100 -27 -112 -19 -12 -49 -9 -67 7 -13 11 -27 13 -70 6 -30 -5 -59 -7
-63 -4 -12 7 -266 5 -289 -3 -10 -3 -15 -10 -12 -17 4 -7 4 -9 -1 -5 -4 4 -25
-2 -46 -12 -21 -11 -45 -20 -52 -20 -8 0 -36 -10 -63 -22 -27 -12 -52 -22 -56
-23 -3 0 -10 -3 -14 -7 -18 -19 -32 -3 -69 75 -21 45 -41 84 -44 87 -4 3 -26
32 -50 65 -52 70 -167 185 -186 185 -7 0 -15 7 -18 15 -6 14 -107 71 -107 59
0 -4 -6 -2 -12 4 -18 14 -83 32 -143 40 -95 12 -277 2 -329 -17 -14 -6 -26 -9
-26 -6 0 2 -25 -7 -55 -20 -30 -14 -55 -22 -55 -19 0 3 -7 -2 -16 -10 -8 -9
-19 -14 -24 -11 -4 3 -14 -2 -21 -11 -7 -8 -30 -24 -51 -35 -21 -11 -38 -24
-38 -29 0 -6 -7 -10 -15 -10 -8 0 -15 -4 -15 -10 0 -5 -7 -10 -15 -10 -8 0
-15 -4 -15 -10 0 -5 -8 -10 -17 -10 -9 0 -13 -3 -10 -6 3 -4 -6 -16 -21 -28
-15 -11 -33 -25 -40 -31 -57 -46 -234 -235 -256 -273 -5 -9 -18 -26 -28 -36
-10 -11 -18 -26 -18 -33 0 -8 -4 -12 -8 -9 -4 2 -14 -10 -22 -27 -7 -18 -16
-34 -19 -37 -16 -13 -87 -173 -112 -250 -25 -78 -27 -96 -25 -215 2 -71 6
-143 10 -159 6 -26 28 -123 42 -185 3 -13 9 -32 14 -41 5 -10 7 -20 5 -22 -3
-3 2 -21 10 -41 8 -20 15 -39 15 -42 0 -3 7 -31 17 -63 9 -31 18 -60 19 -64 1
-5 2 -9 4 -10 2 -4 21 -90 36 -168 3 -14 9 -41 14 -60 9 -34 6 -389 -3 -440
-3 -14 -8 -43 -11 -65 -6 -48 -16 -112 -21 -140 -2 -11 -6 -40 -10 -65 -4 -25
-11 -53 -16 -62 -5 -10 -10 -36 -12 -58 -1 -22 -5 -40 -9 -40 -3 0 -10 -15
-14 -33 -4 -17 -8 -34 -9 -37 -15 -61 -78 -222 -110 -281 -16 -29 -14 -33 39
-59 21 -11 56 -14 120 -12 120 3 150 6 156 13 3 3 34 16 69 28 92 32 200 86
214 109 5 7 12 10 18 7 5 -4 9 -2 9 2 0 5 12 16 28 25 47 29 170 155 208 214
10 16 21 31 24 34 17 16 81 143 162 320 67 146 55 135 127 120 33 -7 63 -12
67 -10 4 1 10 -3 13 -8 5 -9 23 -13 116 -28 16 -2 37 -7 46 -9 9 -3 34 -8 55
-11 22 -2 50 -7 64 -9 47 -10 105 -15 195 -20 50 -2 91 -5 93 -6 7 -5 30 -4
50 3 12 4 22 4 22 0 0 -9 76 -9 86 0 3 4 16 3 28 -1 24 -8 58 -7 74 3 6 3 13
2 16 -2 4 -7 51 -9 51 -2 0 1 41 3 90 5 50 2 126 6 170 10 44 3 103 7 130 9
28 3 77 7 110 10 33 4 85 9 115 11 30 3 75 7 100 10 25 2 83 7 130 10 47 4
103 8 125 10 40 4 143 11 290 20 105 7 185 14 210 19 61 12 115 31 150 52 41
24 112 84 99 84 -4 0 0 8 9 18 17 19 66 113 72 140 31 122 19 107 140 187 107
70 158 122 158 161 0 8 3 14 6 14 8 0 24 39 60 145 28 85 34 109 48 180 8 45
11 60 13 60 1 0 3 18 6 40 6 58 14 136 17 168 2 15 -2 27 -7 27 -7 0 -7 3 0 8
8 5 10 65 9 192 -1 102 -3 185 -4 185 -1 0 -4 47 -7 105 -2 58 -8 106 -12 108
-4 1 -7 18 -6 36 1 19 -5 68 -13 108 -8 40 -16 82 -17 93 -2 11 -6 27 -9 35
-7 20 -28 88 -31 103 -3 11 -9 28 -25 72 -26 68 -122 245 -130 240 -4 -2 -8 2
-8 9 0 27 -196 266 -218 266 -3 0 -18 14 -32 30 -13 17 -29 30 -35 30 -6 0
-18 8 -27 18 -21 23 -134 100 -152 104 -8 2 -16 6 -19 9 -8 10 -94 53 -102 51
-5 -1 -8 3 -8 8 0 6 -8 10 -18 10 -10 0 -22 3 -26 7 -3 4 -17 8 -29 10 -12 2
-40 10 -62 18 -22 7 -80 26 -130 40 -124 37 -158 48 -250 85 -95 37 -229 102
-233 113 -2 4 -10 7 -18 7 -8 0 -14 5 -14 10 0 6 -6 10 -12 10 -16 0 -132 87
-186 139 -55 53 -69 59 -122 50z"/>
</g>
</svg>
